<svg version="1.1" id="Layer_1" xmlns="http://www.w3.org/2000/svg" xmlns:xlink="http://www.w3.org/1999/xlink" x="0px" y="0px"
	 width="100%" viewBox="0 0 518 500" enable-background="new 0 0 518 500" xml:space="preserve">
<path fill="#05091B" opacity="1.000000" stroke="none" 
	d="
M288.000000,1.000001 
	C313.020905,1.000000 338.041779,1.000000 363.760651,1.362749 
	C382.498810,4.140376 400.643707,5.959384 418.555420,9.105611 
	C447.589722,14.205527 473.114960,26.254766 492.746979,49.165268 
	C502.874603,60.984180 509.742065,74.426384 513.949402,89.263077 
	C515.976501,96.411301 517.337402,103.748421 519.000000,111.000000 
	C519.000000,126.687561 519.000000,142.375122 518.651611,158.733032 
	C516.402527,170.207336 514.983704,181.122955 512.510925,191.794357 
	C505.078644,223.868820 492.716949,254.200409 478.560242,283.798157 
	C462.958527,316.416962 445.695465,348.167816 424.575073,377.573364 
	C412.133087,394.896118 399.160095,411.947601 385.130951,427.988495 
	C371.749969,443.288361 356.995026,457.505066 340.183746,469.184143 
	C323.973724,480.445557 306.898865,490.160889 287.567993,495.200043 
	C280.052094,497.159271 272.523041,499.068176 265.000000,501.000000 
	C253.979111,501.000000 242.958206,501.000000 231.263947,500.650085 
	C214.805099,498.354950 199.946167,493.299835 185.788025,486.292114 
	C161.318756,474.180725 140.642410,456.810791 121.507164,437.712341 
	C111.995422,428.218903 103.750336,417.398285 95.407265,406.803955 
	C77.319580,383.835449 61.166901,359.520111 47.424835,333.719360 
	C32.358124,305.431549 19.907888,275.965302 12.531315,244.699631 
	C8.480244,227.529129 6.145566,209.955109 2.938201,192.581268 
	C2.703794,191.311523 1.664880,190.190277 0.999999,189.000000 
	C1.000000,188.555557 1.000000,188.111099 1.337079,187.151245 
	C1.449438,184.757217 1.224719,182.878616 1.000000,181.000000 
	C1.000000,161.979111 1.000000,142.958206 1.350651,123.330536 
	C2.131413,121.874428 2.762715,121.069687 2.962342,120.169258 
	C8.621868,94.641579 23.084467,75.324333 45.287529,62.077770 
	C57.243893,54.944481 69.658890,48.281990 82.538612,43.065414 
	C101.010956,35.583698 119.817902,28.626549 138.983917,23.227121 
	C170.735855,14.282011 203.289749,9.020475 236.159515,6.004076 
	C252.401794,4.513550 268.672791,3.336966 284.926331,1.965410 
	C285.970612,1.877289 286.976349,1.332404 288.000000,1.000001 
z"/>


</svg>